<?xml version="1.0" encoding="UTF-8"?>
<svg version="1.1" xmlns="http://www.w3.org/2000/svg" width="512" height="512">
<path d="M0 0 C1.62824455 -0.00855011 1.62824455 -0.00855011 3.28938293 -0.01727295 C5.58117719 -0.02667249 7.87298466 -0.03323671 10.16479492 -0.03710938 C13.58993702 -0.04672179 17.01445374 -0.07775582 20.43945312 -0.109375 C52.22312281 -0.262615 90.32843433 3.0934663 114.76953125 26.015625 C120.30813481 31.89332674 123.79567159 38.45451938 126.64453125 45.953125 C129.08464217 51.51938442 132.12112504 53.16713296 137.48828125 55.69921875 C154.80801169 64.47302957 165.43061025 82.46498017 171.45703125 100.203125 C173.08123958 105.28613968 173.67831342 109.89235284 173.45703125 115.203125 C174.01390625 115.22890625 174.57078125 115.2546875 175.14453125 115.28125 C184.25144618 115.9581153 191.17005034 119.57796908 197.45703125 126.203125 C205.79878301 136.48902487 205.87617747 148.78120334 205.64453125 161.390625 C205.62944402 162.83397027 205.61576282 164.27733096 205.60351562 165.72070312 C205.57085993 169.21517037 205.51930577 172.70904512 205.45703125 176.203125 C206.22631454 176.19646317 206.99559784 176.18980133 207.78819275 176.18293762 C215.06986146 176.12260204 222.35140742 176.0770373 229.63326168 176.04768848 C233.37614116 176.03209226 237.11881252 176.01096602 240.86157227 175.97680664 C244.47962527 175.94399546 248.09747922 175.92622664 251.71566963 175.91849327 C253.08985079 175.91298849 254.46402216 175.90223987 255.8381176 175.88593483 C266.8285097 175.7608157 275.57796679 176.40915355 283.7265625 184.28125 C290.11980154 191.38164189 290.04262796 198.66825168 289.63265228 207.90895081 C289.07920086 215.13880227 287.33407282 222.21616683 285.77734375 229.28125 C285.37630624 231.16032613 284.97678822 233.03972708 284.5786438 234.91941833 C283.71739353 238.97067275 282.84616725 243.0196 281.96691895 247.06698608 C280.55415468 253.57098968 279.16342646 260.079584 277.77636719 266.58911133 C276.28284579 273.59391749 274.78796034 280.59841626 273.28588867 287.60139465 C269.4809974 305.34677793 265.73669819 323.1042267 262.02450132 340.86917543 C261.58995254 342.94869813 261.15526459 345.0281917 260.72053909 347.10767746 C259.28032606 353.9971495 257.84081211 360.88676744 256.40179443 367.77648926 C256.19065949 368.78735228 256.19065949 368.78735228 255.97525918 369.81863678 C255.83506817 370.48983964 255.69487715 371.1610425 255.55043793 371.85258484 C255.41088023 372.52075415 255.27132254 373.18892345 255.12753582 373.87734032 C254.84824285 375.21453448 254.56895421 376.55172956 254.28966999 377.88892555 C251.05839107 393.35946875 247.8190251 408.8281914 244.54549599 424.28985786 C243.19219375 430.6897803 241.85913143 437.09337603 240.54687881 443.50183773 C239.7680845 447.28888056 238.97384967 451.07256795 238.17568207 454.85556984 C237.81994224 456.55828204 237.47075547 458.26238096 237.12918854 459.96799278 C233.56995232 477.71224232 226.99000991 493.06848634 211.625 503.89453125 C203.30717045 508.91520314 194.46867788 512.4483844 184.67620468 512.46039391 C184.02815296 512.46389998 183.38010124 512.46740605 182.71241158 512.47101837 C180.54986632 512.48029158 178.38759278 512.47541975 176.22503662 512.47055054 C174.65528369 512.47428886 173.08553263 512.47889111 171.5157845 512.48428118 C167.20881567 512.49650411 162.90192455 512.49625155 158.59494233 512.49389243 C153.9472193 512.49348409 149.29952112 512.50452512 144.65180969 512.51400757 C135.54840399 512.53061474 126.4450242 512.53611699 117.34160462 512.53723232 C109.94102256 512.53818294 102.54044905 512.54229394 95.13986969 512.54863358 C74.15334637 512.56624531 53.16684349 512.57547257 32.18031272 512.57397263 C31.04911519 512.57389272 29.91791765 512.5738128 28.75244141 512.57373047 C27.6198611 512.57364871 26.4872808 512.57356695 25.32037988 512.57348271 C6.96651898 512.57266986 -11.38725984 512.59180749 -29.741097 512.6200072 C-48.59111444 512.64874051 -67.44109185 512.66254725 -86.29113173 512.66081965 C-96.87220587 512.6601559 -107.45319396 512.66564177 -118.03424835 512.68717575 C-127.04344924 512.70539341 -136.05252509 512.70973006 -145.06173643 512.6961569 C-149.65653997 512.6896302 -154.25110365 512.68949932 -158.84588432 512.7068634 C-163.05665624 512.72261233 -167.26699849 512.71971204 -171.47776005 512.70229514 C-172.99658093 512.69922924 -174.51543403 512.70284215 -176.03421691 512.71401529 C-190.14585612 512.81090862 -200.88620632 509.79918324 -211.54296875 500.203125 C-221.4718591 489.09529405 -223.13891227 477.1147256 -223.05763245 462.72410583 C-223.06296476 461.06768793 -223.07003438 459.41127488 -223.0786795 457.75487095 C-223.09724249 453.22689382 -223.09102386 448.69924517 -223.08052647 444.17125475 C-223.07351653 439.27888525 -223.08954586 434.386582 -223.1025238 429.49423218 C-223.12413792 419.9197688 -223.12404372 410.3454244 -223.11589826 400.77094465 C-223.10959284 392.9885767 -223.11074027 385.20624339 -223.11717033 377.42387581 C-223.11807199 376.31533357 -223.11897364 375.20679133 -223.11990262 374.0646569 C-223.12175386 371.81253408 -223.12361642 369.56041127 -223.12549018 367.30828846 C-223.14205919 346.20205954 -223.1333566 325.09589751 -223.1165046 303.98967261 C-223.10180375 284.68478778 -223.11644311 265.38005855 -223.14527477 246.07519376 C-223.17467295 226.24306261 -223.1856401 206.41100326 -223.17609257 186.57885128 C-223.17507003 184.33542034 -223.17407542 182.09198939 -223.17310905 179.84855843 C-223.17263266 178.74480219 -223.17215627 177.64104596 -223.17166545 176.50384257 C-223.16950214 168.73179158 -223.17930083 160.95980865 -223.19388008 153.18777275 C-223.21140236 143.71491552 -223.21128721 134.24225675 -223.18852843 124.76940732 C-223.17738623 119.93770969 -223.17422347 115.10636171 -223.19282913 110.27467918 C-223.20965289 105.8487679 -223.20325733 101.42351075 -223.17861234 96.99764169 C-223.17373495 95.39955566 -223.1772287 93.80141667 -223.19009978 92.20337503 C-223.26506421 82.16922051 -222.57590533 73.91142318 -215.69409376 66.10615247 C-209.31103332 59.71625494 -201.06572297 57.02142195 -192.15698242 56.80004883 C-189.84142344 56.81932253 -187.5259614 56.85677818 -185.2109375 56.91015625 C-182.67643736 56.92002198 -180.14193126 56.92844326 -177.60742188 56.93554688 C-173.65244759 56.96881923 -169.69882769 57.0162122 -165.74438477 57.08959961 C-161.89905618 57.15259102 -158.05671012 57.16007757 -154.2109375 57.16015625 C-153.02960739 57.19728226 -151.84827728 57.23440826 -150.63114929 57.2726593 C-144.49529663 57.35688428 -144.49529663 57.35688428 -139.50332642 54.24057007 C-137.97065821 51.95420656 -136.74271753 49.67649208 -135.54296875 47.203125 C-120.05632443 25.96429851 -94.64308342 19.5933699 -70.6796875 13.15625 C-65.58160102 11.78024462 -60.53474748 10.30142387 -55.50048828 8.7097168 C-37.44422326 3.00570403 -18.9271204 0.07935308 0 0 Z " fill="#F5BA57" transform="translate(222.54296875,-0.203125)"/>
<path d="M0 0 C1.62824455 -0.00855011 1.62824455 -0.00855011 3.28938293 -0.01727295 C5.58117719 -0.02667249 7.87298466 -0.03323671 10.16479492 -0.03710938 C13.58993702 -0.04672179 17.01445374 -0.07775582 20.43945312 -0.109375 C52.22312281 -0.262615 90.32843433 3.0934663 114.76953125 26.015625 C120.30813481 31.89332674 123.79567159 38.45451938 126.64453125 45.953125 C129.08464217 51.51938442 132.12112504 53.16713296 137.48828125 55.69921875 C153.36433567 63.74169369 164.43406006 80.33634156 170.35546875 96.66796875 C177.2961017 118.94198584 176.37153911 143.34373492 166.46875 164.5546875 C165.80727064 165.77580329 165.13526111 166.99123269 164.45703125 168.203125 C164.09326385 168.88669067 163.72949646 169.57025635 163.35470581 170.27453613 C161.31649221 173.5572964 159.78100178 175.80599999 155.98316956 176.94515991 C152.92517731 177.22965289 149.96125436 177.25985562 146.890625 177.1953125 C145.77897476 177.19822296 144.66732452 177.20113342 143.52198792 177.20413208 C141.177719 177.20081947 138.83340541 177.17775537 136.48950195 177.13623047 C132.90193098 177.0782446 129.32026113 177.09502541 125.73242188 177.12109375 C123.45179421 177.10861976 121.17118519 177.09183844 118.890625 177.0703125 C117.81969101 177.07618378 116.74875702 177.08205505 115.64537048 177.08810425 C108.44328539 176.90563911 108.44328539 176.90563911 105.71568298 174.9627533 C103.37896567 172.26896529 101.69040612 169.11070618 100.28125 165.84765625 C99.93263916 165.06575928 99.58402832 164.2838623 99.22485352 163.47827148 C98.86834717 162.66559814 98.51184082 161.8529248 98.14453125 161.015625 C89.76209415 142.71952868 77.76176465 130.20942892 60.0078125 120.921875 C53.57608885 119.10956696 47.24650133 122.17244705 41.33203125 124.578125 C40.45804688 124.93334229 39.5840625 125.28855957 38.68359375 125.65454102 C22.13404484 132.54476839 6.8836782 141.63981022 -8.36010742 150.99145508 C-22.33435533 159.56209009 -36.43996454 167.768709 -51.54296875 174.203125 C-52.37441406 174.5640625 -53.20585937 174.925 -54.0625 175.296875 C-70.29332533 181.26937631 -89.76614562 176.45727162 -105.00390625 169.86328125 C-125.34357149 160.32204755 -140.8831619 143.2033738 -148.56176758 122.22802734 C-155.75588455 101.54645854 -153.40733201 80.90092125 -144.35546875 61.328125 C-138.40120038 49.08491351 -130.51034228 40.26422103 -119.54296875 32.203125 C-118.69089844 31.57535156 -117.83882812 30.94757812 -116.9609375 30.30078125 C-103.19448294 20.86859274 -86.56178192 17.42254624 -70.6796875 13.15625 C-65.58160102 11.78024462 -60.53474748 10.30142387 -55.50048828 8.7097168 C-37.44422326 3.00570403 -18.9271204 0.07935308 0 0 Z " fill="#4D4D4D" transform="translate(222.54296875,-0.203125)"/>
<path d="M0 0 C1.87441521 0.00848969 1.87441521 0.00848969 3.78669739 0.01715088 C7.06995505 0.03560286 10.3523897 0.07138229 13.63537598 0.1159668 C17.00095681 0.1572723 20.36665932 0.17523624 23.73242188 0.1953125 C30.30760681 0.23918337 36.88225191 0.30594708 43.45703125 0.390625 C42.44011512 2.95610626 41.4093816 5.49614618 40.2734375 8.01171875 C31.78205905 27.08425415 31.11432824 47.34539191 37.67578125 67.05078125 C41.92267603 77.70340898 48.26629121 86.52421477 55.45703125 95.390625 C54.87695312 96.02677734 54.87695312 96.02677734 54.28515625 96.67578125 C50.73997371 100.66849921 47.75842477 104.56281282 45.45703125 109.390625 C45.15667969 109.9990625 44.85632813 110.6075 44.546875 111.234375 C40.4667217 121.10265275 41.045734 133.03507423 44.89453125 142.828125 C49.97179313 153.18478798 57.12153458 160.32554716 67.45703125 165.390625 C68.35164063 165.60203125 69.24625 165.8134375 70.16796875 166.03125 C70.92335938 166.47984375 71.67875 166.9284375 72.45703125 167.390625 C73.1752841 170.25114505 73.56191073 172.73136579 73.83203125 175.640625 C76.15049922 193.75767205 82.39103448 209.80917878 91.53662109 225.54150391 C93.71766848 229.9232686 93.38377165 232.78189269 92.3125 237.546875 C92.04759766 238.73410156 91.78269531 239.92132813 91.50976562 241.14453125 C91.08147461 242.99884766 91.08147461 242.99884766 90.64453125 244.890625 C90.37060547 246.12683594 90.09667969 247.36304688 89.81445312 248.63671875 C87.39298216 259.33300055 87.39298216 259.33300055 85.45703125 262.390625 C83.09834456 263.8493639 80.79293311 265.13251535 78.33203125 266.390625 C44.71157616 284.58066912 19.96467013 315.54473675 8.9296875 352.07421875 C5.32845792 364.74005201 3.131704 377.13758616 2.95703125 390.328125 C2.93842041 391.24585693 2.91980957 392.16358887 2.90063477 393.10913086 C2.95394908 398.66675989 3.61639523 402.08306235 7.45703125 406.390625 C12.13289798 410.17674271 16.82362754 409.86313885 22.5703125 409.90234375 C23.53986374 409.92029495 24.50941498 409.93824615 25.50834656 409.95674133 C28.59536431 410.01078549 31.68222795 410.04472147 34.76953125 410.078125 C36.86655787 410.11130324 38.96356418 410.14579337 41.06054688 410.18164062 C46.19259705 410.26650878 51.32460197 410.33334837 56.45703125 410.390625 C55.85009133 412.43899989 55.23686997 414.48551409 54.62109375 416.53125 C54.28029785 417.67110352 53.93950195 418.81095703 53.58837891 419.98535156 C52.03050264 424.67444483 50.09065756 429.19832189 47.45703125 433.390625 C46.79703125 433.720625 46.13703125 434.050625 45.45703125 434.390625 C45.12703125 435.380625 44.79703125 436.370625 44.45703125 437.390625 C33.13800081 448.3546305 21.06390257 454.27213256 5.45703125 455.390625 C4.66296875 455.45636719 3.86890625 455.52210938 3.05078125 455.58984375 C-8.52852394 456.12117263 -18.07733595 451.01364427 -26.54296875 443.390625 C-36.4718591 432.28279405 -38.13891227 420.3022256 -38.05763245 405.91160583 C-38.06296476 404.25518793 -38.07003438 402.59877488 -38.0786795 400.94237095 C-38.09724249 396.41439382 -38.09102386 391.88674517 -38.08052647 387.35875475 C-38.07351653 382.46638525 -38.08954586 377.574082 -38.1025238 372.68173218 C-38.12413792 363.1072688 -38.12404372 353.5329244 -38.11589826 343.95844465 C-38.10959284 336.1760767 -38.11074027 328.39374339 -38.11717033 320.61137581 C-38.11807199 319.50283357 -38.11897364 318.39429133 -38.11990262 317.2521569 C-38.12175386 315.00003408 -38.12361642 312.74791127 -38.12549018 310.49578846 C-38.14205919 289.38955954 -38.1333566 268.28339751 -38.1165046 247.17717261 C-38.10180375 227.87228778 -38.11644311 208.56755855 -38.14527477 189.26269376 C-38.17467295 169.43056261 -38.1856401 149.59850326 -38.17609257 129.76635128 C-38.17507003 127.52292034 -38.17407542 125.27948939 -38.17310905 123.03605843 C-38.17263266 121.93230219 -38.17215627 120.82854596 -38.17166545 119.69134257 C-38.16950214 111.91929158 -38.17930083 104.14730865 -38.19388008 96.37527275 C-38.21140236 86.90241552 -38.21128721 77.42975675 -38.18852843 67.95690732 C-38.17738623 63.12520969 -38.17422347 58.29386171 -38.19282913 53.46217918 C-38.20965289 49.0362679 -38.20325733 44.61101075 -38.17861234 40.18514169 C-38.17373495 38.58705566 -38.1772287 36.98891667 -38.19009978 35.39087503 C-38.26506421 25.35672123 -37.57588139 17.09899013 -30.69414526 9.29367632 C-22.19929816 0.78986266 -11.45526496 -0.19873055 0 0 Z " fill="#FCC647" transform="translate(37.54296875,56.609375)"/>
<path d="M0 0 C5.78757532 3.58311798 10.46339106 8.17741049 15.23046875 13 C15.89949219 13.65871094 16.56851563 14.31742188 17.2578125 14.99609375 C25.4916981 23.67808197 30.54286868 35.358759 35.6875 46.0390625 C37.02875914 48.6129218 38.46431567 50.71619725 40.23046875 53 C39.43662623 53.00146656 38.64278372 53.00293312 37.82488537 53.00444412 C18.47674284 53.04155402 -0.87121977 53.10062412 -20.21922016 53.18390274 C-29.57591844 53.22365104 -38.93253313 53.25606487 -48.28930664 53.27099609 C-56.44810604 53.28403447 -64.60672119 53.31105476 -72.7654168 53.35461307 C-77.08231097 53.37717886 -81.39897829 53.39291362 -85.71593666 53.39188385 C-89.78640834 53.39113433 -93.8563795 53.409201 -97.92672157 53.44116783 C-99.41369338 53.44962627 -100.9007216 53.45144457 -102.38770676 53.44580269 C-112.26477376 53.41334407 -122.09290526 53.9472491 -130.109375 60.41015625 C-131.39521484 61.72306641 -131.39521484 61.72306641 -132.70703125 63.0625 C-133.58230469 63.91972656 -134.45757812 64.77695313 -135.359375 65.66015625 C-141.98173398 73.85963946 -143.18951725 85.81980943 -145.20498657 95.87207031 C-146.05575229 100.11353898 -146.93333948 104.3494667 -147.80859375 108.5859375 C-148.06347313 109.82437408 -148.06347313 109.82437408 -148.32350159 111.08782959 C-149.96355214 119.02116696 -151.8219442 126.89314344 -153.74609375 134.76171875 C-154.98938788 139.84865322 -156.06943094 144.96479171 -157.14453125 150.08984375 C-157.93109572 153.75228457 -158.82700419 157.37489591 -159.76953125 161 C-164.25591077 157.30106816 -166.28750615 152.4650389 -168.70703125 147.3125 C-169.14724609 146.37784912 -169.58746094 145.44319824 -170.04101562 144.48022461 C-176.4288961 130.57002341 -181.0845731 115.46569106 -180.76953125 100 C-181.32640625 99.85304688 -181.88328125 99.70609375 -182.45703125 99.5546875 C-193.55655093 96.29232867 -201.73404721 88.80021992 -207.60546875 78.90625 C-212.64137879 68.59800222 -213.59515521 58.48665967 -210.87890625 47.34765625 C-208.5335278 40.6476918 -205.22856194 33.72627489 -199.76953125 29 C-195.76953125 29 -195.76953125 29 -193.90234375 30.46875 C-192.90847656 31.47421875 -192.90847656 31.47421875 -191.89453125 32.5 C-176.31911178 46.83445109 -155.24681701 52.77981764 -134.4375 52.3203125 C-113.0914843 51.25409527 -91.89504307 35.28124764 -74.18701172 24.46582031 C-67.12257693 20.18235571 -59.95786112 16.0711563 -52.76953125 12 C-52.0626416 11.59652344 -51.35575195 11.19304687 -50.62744141 10.77734375 C-42.19109653 5.99602507 -33.61151559 1.92212966 -24.58203125 -1.625 C-23.69660645 -1.98037842 -22.81118164 -2.33575684 -21.89892578 -2.7019043 C-13.27437732 -5.95946089 -8.0466044 -4.15824526 0 0 Z " fill="#FEC9B5" transform="translate(290.76953125,124)"/>
<path d="M0 0 C1.33231471 2.66462942 0.77885102 3.89133568 0.1668396 6.79325867 C-0.14841171 8.3125573 -0.14841171 8.3125573 -0.47003174 9.86254883 C-0.70889099 10.97871582 -0.94775024 12.09488281 -1.19384766 13.24487305 C-1.56197067 15.00405815 -1.56197067 15.00405815 -1.93753052 16.79878235 C-2.61479089 20.0284592 -3.29810195 23.25674535 -3.98410463 26.48456931 C-4.70457872 29.88143387 -5.4174583 33.27989158 -6.13119507 36.67817688 C-7.33579662 42.40838211 -8.54530587 48.13753268 -9.75830078 53.8659668 C-11.45148647 61.86213915 -13.13634516 69.86004738 -14.81924367 77.85839021 C-19.81283289 101.5867072 -24.81434043 125.31274735 -30 149 C-36.01396477 149.09594484 -42.02743935 149.17157933 -48.04199219 149.21972656 C-50.0866728 149.2398042 -52.13129627 149.26707225 -54.17578125 149.30175781 C-57.11993537 149.35044519 -60.06332834 149.37300744 -63.0078125 149.390625 C-63.9174173 149.41127014 -64.82702209 149.43191528 -65.76419067 149.45318604 C-71.36612646 149.45515303 -74.56773337 148.7619984 -79 145 C-83.47380412 139.95856797 -83.66775188 135.62741975 -83.5625 129.1875 C-83.55226807 128.23190186 -83.54203613 127.27630371 -83.53149414 126.29174805 C-82.52217495 90.94270226 -67.32710853 57.33588816 -43 32 C-42.54318848 31.50677246 -42.08637695 31.01354492 -41.61572266 30.50537109 C-29.64580843 17.58994091 -15.76862172 7.78832794 0 0 Z " fill="#DBEFF7" transform="translate(123,318)"/>
<path d="M0 0 C1.41476941 0.12367395 2.82868627 0.25711941 4.2421875 0.39453125 C5.02964355 0.46776611 5.81709961 0.54100098 6.62841797 0.61645508 C14.17679025 1.83721819 20.72219795 6.95826577 25.44140625 12.77734375 C32.41626142 22.95855026 32.40126918 34.30407756 32.1875 46.1875 C32.125625 51.075625 32.06375 55.96375 32 61 C18.47 61 4.94 61 -9 61 C-11 54 -11 54 -9.98828125 51.0078125 C-9.43527344 50.05648437 -8.88226563 49.10515625 -8.3125 48.125 C0.03686997 32.75759468 0.32853804 17.12048236 0 0 Z " fill="#F5832D" transform="translate(396,115)"/>
<path d="M0 0 C9.61492165 4.15059984 18.31495351 11.01049905 26.97265625 16.8515625 C23.05405903 25.2813253 16.91773624 32.50678969 8.1796875 35.953125 C0.8147515 38.01638356 -7.35899031 38.07593943 -14.40234375 34.9140625 C-21.35630616 30.89290796 -26.07386509 24.71876703 -30.02734375 17.8515625 C-24.88535183 14.10043724 -19.8895977 10.63353739 -14.10546875 7.96484375 C-10.58299708 6.07780535 -7.48118793 3.58263643 -4.32421875 1.14453125 C-2.02734375 -0.1484375 -2.02734375 -0.1484375 0 0 Z " fill="#BEC092" transform="translate(235.02734375,354.1484375)"/>
<path d="M0 0 C15.51 0 31.02 0 47 0 C41.35205993 5.64794007 41.35205993 5.64794007 37.9375 7.25 C37.28652344 7.56453125 36.63554687 7.8790625 35.96484375 8.203125 C27.88121756 11.48157379 18.48400483 10.80489159 10.3359375 8.0625 C6.46389364 6.30130279 3.10733848 3.89902529 0 1 C0 0.67 0 0.34 0 0 Z " fill="#DDCCA9" transform="translate(332,177)"/>
<path d="M0 0 C2.475 0.99 2.475 0.99 5 2 C1.07262629 10.44864296 -5.05271815 17.57890795 -13.75390625 21.12109375 C-17.4297691 22.11636348 -20.57319762 22.19673212 -24.375 22.125 C-25.62023437 22.10695313 -26.86546875 22.08890625 -28.1484375 22.0703125 C-29.08945313 22.04710937 -30.03046875 22.02390625 -31 22 C-31 21.34 -31 20.68 -31 20 C-28 18 -28 18 -25 18 C-24.79375 17.401875 -24.5875 16.80375 -24.375 16.1875 C-22.45320698 13.13010201 -20.31879254 12.28687874 -17 11 C-16.01 11.33 -15.02 11.66 -14 12 C-8.43543333 9.02360388 -4.32878231 4.52654393 0 0 Z " fill="#75ABC7" transform="translate(257,369)"/>
<path d="M0 0 C-3.9419417 4.88049925 -8.11950075 9.0580583 -13 13 C-14.29787866 11.75645114 -15.58806759 10.5048736 -16.875 9.25 C-17.59429687 8.55390625 -18.31359375 7.8578125 -19.0546875 7.140625 C-20.86479679 5.14877783 -21.94848086 3.4572342 -23 1 C-20.29178874 0.83111377 -17.58345903 0.66482399 -14.875 0.5 C-14.11445313 0.45230469 -13.35390625 0.40460938 -12.5703125 0.35546875 C-8.3724967 0.10215228 -4.20798902 -0.05377622 0 0 Z " fill="#FDC83F" transform="translate(247,340)"/>
<path d="M0 0 C0.66 0.33 1.32 0.66 2 1 C1.61139184 3.37202385 1.30737569 4.69347107 -0.41796875 6.4140625 C-6.96027268 10.89113583 -12.10632268 12.27219577 -20 12 C-16.22519947 8.95644355 -12.08025276 6.63473189 -7.875 4.25 C-7.14667969 3.82589844 -6.41835937 3.40179688 -5.66796875 2.96484375 C-3.81355223 1.91252236 -1.90960163 0.94850542 0 0 Z " fill="#67A6CD" transform="translate(252,379)"/>
<path d="M0 0 C2.475 0.99 2.475 0.99 5 2 C3.22054913 6.04420651 0.60470327 9.46078487 -2 13 C-2.66 12.34 -3.32 11.68 -4 11 C-3.34 9.68 -2.68 8.36 -2 7 C-3.65 7.33 -5.3 7.66 -7 8 C-6.02133662 6.85373678 -5.04205413 5.70800212 -4.0625 4.5625 C-3.51722656 3.92441406 -2.97195312 3.28632813 -2.41015625 2.62890625 C-1.63204305 1.73008851 -0.84063472 0.84063472 0 0 Z " fill="#7EADC0" transform="translate(257,369)"/>
<path d="M0 0 C0.66 0 1.32 0 2 0 C2.33 1.98 2.66 3.96 3 6 C8.61 6 14.22 6 20 6 C20 6.33 20 6.66 20 7 C12.08 7 4.16 7 -4 7 C-2.68 4.69 -1.36 2.38 0 0 Z " fill="#F6B581" transform="translate(384,170)"/>
<path d="M0 0 C0.66 0.33 1.32 0.66 2 1 C0.58829091 2.29708314 -0.82958196 3.58745978 -2.25 4.875 C-3.03890625 5.59429687 -3.8278125 6.31359375 -4.640625 7.0546875 C-7.85390233 9.7040453 -9.80401262 11 -14 11 C-14 10.34 -14 9.68 -14 9 C-11 7 -11 7 -8 7 C-7.79375 6.401875 -7.5875 5.80375 -7.375 5.1875 C-5.46450791 2.14808077 -3.28595775 1.30069161 0 0 Z " fill="#81AFBF" transform="translate(240,380)"/>
<path d="M0 0 C2.475 0.99 2.475 0.99 5 2 C4.67 2.99 4.34 3.98 4 5 C3.4225 4.814375 2.845 4.62875 2.25 4.4375 C-0.20692525 3.95976454 -1.64397534 4.24270636 -4 5 C-2.68 3.35 -1.36 1.7 0 0 Z " fill="#92B5B6" transform="translate(257,369)"/>
</svg>
